<svg xmlns="http://www.w3.org/2000/svg" width="256" height="256"><path d="M0 0h256v256H0V0z" fill="#FEFEFE"/><path d="M174.227 69.254c16 12.618 25.679 30.308 28.421 50.367C204.883 141.097 199.44 161.093 186 178c-12.877 15.16-29.6 23.463-49.332 25.781-19.729 1.177-38.054-3.768-53.36-16.722L81 185l-2.152-1.902c-14.669-13.768-21.208-33.023-21.844-52.723C56.859 118.51 58.979 107.827 64 97l1.273-2.828C72.951 78.64 87.192 66.62 103 60l2.996-1.258c22.557-7.896 48.961-2.949 68.23 10.512z" fill="#010101"/><path d="M203 42c8.814 7.679 15.789 16.091 22 26l1.895 2.922C231.808 78.844 235.243 87.133 238 96l.646 2.07c3.178 10.768 3.74 21.51 3.792 32.68l.03 3.873c-.285 31.302-13.976 57.819-35.769 79.686-9.398 8.875-21.53 17.184-33.699 21.691l-3-1c14.24-33.222 14.24-33.222 25.066-42.434 15.84-13.857 23.297-37.56 24.871-57.941 1.268-24.334-7.639-48.809-23.586-67.105-15.981-17.434-38.518-26.935-61.913-28.395-25.245-1.033-48.571 7.57-67.18 24.617C53.925 76.638 45.862 94.087 42 112l-.53 2.359c-4.105 23.089 1.523 48.031 14.662 67.302 14.048 19.84 33.788 33.173 57.884 37.831 13.473 1.955 26.407.757 39.492-2.715C157 216 157 216 160 217a750.432 750.432 0 0 1-5.063 11.875l-1.412 3.418c-3.601 8.183-3.601 8.183-7.576 10.437L142 243l-2.841.198c-33.133 1.774-61.417-7.455-86.194-29.456-19.506-17.817-33.735-45.158-35.126-71.831-.473-36.9 7.663-66.626 33.34-94.15C92.35 7.448 158.694 5.334 203 42z" fill="#010101"/><path d="M158 85c3.544 2.806 6.802 5.808 10 9l1.785 1.75c9.85 10.48 11.892 24.312 11.59 38.086-.722 13.974-7.334 26.043-17.45 35.574-11.922 9.843-25.674 12.862-40.8 11.813-13.269-1.393-24.514-8.306-33.05-18.344C80.551 149.662 77.582 136.025 79 120c2.76-14.886 10.793-26.118 22.848-34.914C118.286 74.209 141.498 74.035 158 85z" fill="#FEFEFE"/><path d="M114 100c2.5 1.5 2.5 1.5 4 4 .627 4.86.544 6.97-1.75 11.313-4.548 5.432-4.548 5.432-8.363 6.003-3.737.19-6.196.062-9.512-1.754-1.793-3.34-1.71-5.537-1.129-9.238 1.265-3.9 3.727-6.626 6.754-9.324 3.208-1.604 6.52-1.475 10-1z" fill="#010101"/></svg>